<svg xmlns="http://www.w3.org/2000/svg" xml:space="preserve" viewBox="0 0 449 449"><linearGradient id="a" x1="-2254.016" x2="-2267.51" y1="-2831.433" y2="-2961.618" gradientTransform="matrix(1.75 0 0 -1.75 4099.705 -4631.96)" gradientUnits="userSpaceOnUse"><stop offset="0" style="stop-color:#502d95"/><stop offset=".1" style="stop-color:#6d37ac"/><stop offset=".57" style="stop-color:#6786d1"/></linearGradient><path d="m170.9 314-27-6s-6.2 39.6-8.6 59.5c-3.8 32.1-8.4 76.5-6.6 110.5 2 37.4 12.2 73.4 15.6 73.4s-1.8-22.9.5-73.3c1.5-33.6 7.1-74 13.8-110.5 3.3-18 12.9-53.4 12.9-53.4h-.6z" style="fill:url(#a)"/><linearGradient id="b" x1="-2175.81" x2="-2189.303" y1="-2839.483" y2="-2969.721" gradientTransform="matrix(1.75 0 0 -1.75 4099.705 -4631.96)" gradientUnits="userSpaceOnUse"><stop offset="0" style="stop-color:#502d95"/><stop offset=".1" style="stop-color:#6d37ac"/><stop offset=".57" style="stop-color:#6786d1"/></linearGradient><path d="M284.8 311.2h8.3c11.1 41.4 13.2 101.1 10.8 146.1-2.6 49.5-16.2 97.2-20.6 97.2s2.4-30.3-.7-97.1C280.4 412.9 271 371 270 311.2z" style="fill:url(#b)"/><linearGradient id="c" x1="-1831.757" x2="-1831.757" y1="-2576.996" y2="-2695.45" gradientTransform="matrix(2.12 0 0 -2.12 4199.46 -5137.32)" gradientUnits="userSpaceOnUse"><stop offset="0" style="stop-color:#763dcd"/><stop offset=".22" style="stop-color:#8d61eb"/><stop offset=".37" style="stop-color:#8c86ec"/><stop offset=".64" style="stop-color:#748ce8"/><stop offset=".9" style="stop-color:#6ba1e6"/></linearGradient><path d="M309.8 181.6h13.3c17.8 66.2 26.1 161.9 22.2 234-4.2 79.4-25.9 155.7-33.1 155.7s3.8-48.6-1.1-155.6c-3.3-71.4-23.5-138.4-25.1-234.2z" style="fill:url(#c)"/><linearGradient id="d" x1="-1891.134" x2="-1891.134" y1="-2576.996" y2="-2695.45" gradientTransform="matrix(2.12 0 0 -2.12 4199.46 -5137.32)" gradientUnits="userSpaceOnUse"><stop offset="0" style="stop-color:#763dcd"/><stop offset=".22" style="stop-color:#8d61eb"/><stop offset=".37" style="stop-color:#8c86ec"/><stop offset=".64" style="stop-color:#748ce8"/><stop offset=".9" style="stop-color:#6ba1e6"/></linearGradient><path d="M196.6 180.1h-13.3c-17.8 66.2-26.1 161.9-22.2 234 4.2 79.4 25.9 155.7 33.1 155.7s-3.8-48.6 1.1-155.6c3.3-71.4 23.5-138.4 25.1-234.2h-23.8z" style="fill:url(#d)"/><linearGradient id="e" x1="-1922.004" x2="-1922.004" y1="-2576.996" y2="-2695.45" gradientTransform="matrix(2.12 0 0 -2.12 4199.46 -5137.32)" gradientUnits="userSpaceOnUse"><stop offset="0" style="stop-color:#763dcd"/><stop offset=".22" style="stop-color:#8d61eb"/><stop offset=".37" style="stop-color:#8c86ec"/><stop offset=".64" style="stop-color:#748ce8"/><stop offset=".9" style="stop-color:#6ba1e6"/></linearGradient><path d="m155.6 150-30.2-10.8s-11.1 70.7-15.3 106.2c-6.7 57.3-20 136.6-16.7 197.3 3.6 66.8 21.8 131.1 27.8 131.1s-3.2-40.9 1-131c2.8-60.1 21.2-117 27.4-197.4 2.5-31.9 7.3-95.5 7.3-95.5z" style="fill:url(#e)"/><linearGradient id="f" x1="-1862.421" x2="-1862.421" y1="-2576.996" y2="-2695.45" gradientTransform="matrix(2.12 0 0 -2.12 4199.46 -5137.32)" gradientUnits="userSpaceOnUse"><stop offset="0" style="stop-color:#763dcd"/><stop offset=".22" style="stop-color:#8d61eb"/><stop offset=".37" style="stop-color:#8c86ec"/><stop offset=".64" style="stop-color:#748ce8"/><stop offset=".9" style="stop-color:#6ba1e6"/></linearGradient><path d="m255.5 181.6-27.3 4.6s3.6 53 3.6 83.1c0 48.9 1.9 98.2 1.8 149.5-.2 58.9 9.7 157.6 14.8 157.6s21.7-127 25.2-203c2.3-50.7-5.2-95.1-6.5-125.4-1.2-27-5-63.4-5-63.4z" style="fill:url(#f)"/><linearGradient id="g" x1="-1735.548" x2="-1586.936" y1="-2673.095" y2="-2838.19" gradientTransform="matrix(1.79 0 0 -1.79 3246.155 -4657.91)" gradientUnits="userSpaceOnUse"><stop offset="0" style="stop-color:#c395fc"/><stop offset="1" style="stop-color:#4f65f5"/></linearGradient><path d="M405.8 197.7c0 68.8-11.7 73-30.8 102.1-13.8 20.9 14.1 37.1 2.9 42.9-13.3 6.9-9.1-5.6-35.6-12.7-11.5-3-36.5.3-46.6 2.3-10 1.9-40.6-15.1-48.7-17.3-12.1-3.3-41.8 12.5-59.9 12.5s-37-15.8-61.1-9.3c-28.6 7.7-63.1 26.3-68.3 20.2-10-11.7 21.9-20.6 10-41.4-7.5-13.2-33.4-47.9-34.2-83-2.4-112.8 91-208.1 191.1-208.1s181.1 86.8 181.1 183.9" style="fill:url(#g)"/><linearGradient id="h" x1="-1059.872" x2="-1059.872" y1="-6378.031" y2="-6594.775" gradientTransform="matrix(.51 0 0 -.51 687.865 -3205.53)" gradientUnits="userSpaceOnUse"><stop offset="0" style="stop-color:#fff;stop-opacity:.4"/><stop offset="1" style="stop-color:#fff;stop-opacity:0"/></linearGradient><path d="M218.4 41.7C163.7 41.7 87.3 98.3 87.3 153c0 6.1-4.9 11-11 11s-11-4.9-11-11c0-66.8 86.2-133.2 153.1-133.2 6.1 0 11 4.9 11 11s-5 10.9-11 10.9" style="fill-rule:evenodd;clip-rule:evenodd;fill:url(#h)"/><linearGradient id="i" x1="-1351.382" x2="-1485.195" y1="-3908.894" y2="-4007.24" gradientTransform="matrix(1.02 0 0 -1.02 1657.5 -3832.45)" gradientUnits="userSpaceOnUse"><stop offset="0" style="stop-color:#f9f9f9"/><stop offset="1" style="stop-color:#f9f9f9;stop-opacity:0"/></linearGradient><path d="M299.3 248.5c-5.8 9.5-13.7 17.1-23 22.3-4 2.2-8.2 3.9-12.6 5.2-13.1 5.9-27.7 9-42.6 9.3-50.8.9-93-31.6-94.7-72.8-.8-20.2 11.3-41.2 20.6-57.3 7.9-13.7 21.5-37.2 39.4-46.6 36.5-19.2 85.8 1.1 110.4 45.6 7.1 12.9 11.7 27 13.2 41.1 1.1 4.6 1.8 9.3 1.8 14 .2 12.2-3.4 24.3-10.2 35.1-.7 1.4-1.4 2.7-2.2 4 0 .1-.1.1-.1.1" style="fill:url(#i)"/><linearGradient id="j" x1="-1293.035" x2="-1228.344" y1="-3139.552" y2="-3205.578" gradientTransform="matrix(1.43 0 0 -1.43 2027.665 -4326.01)" gradientUnits="userSpaceOnUse"><stop offset="0" style="stop-color:#0043a2"/><stop offset="1" style="stop-color:#00133a"/></linearGradient><path d="M219 147.4c31.7 0 57.3 25.7 57.3 57.3S250.6 262 219 262s-57.3-25.7-57.3-57.3c0-5.9.9-11.5 2.5-16.9 4.5 10 14.5 16.9 26.1 16.9 15.8 0 28.6-12.9 28.6-28.6 0-11.6-6.9-21.7-16.9-26.1 5.4-1.7 11-2.5 17-2.6" style="fill:url(#j)"/></svg>