<svg xmlns="http://www.w3.org/2000/svg" xml:space="preserve" id="svg10" x="0" y="0" version="1.1" viewBox="0 0 512 512"><style>.st4{fill:#dee6e3}.st5{fill:#d4541e}.st6{fill:#852e1b}.st7{fill:#fff}.st11{fill:#6f2717}.st13{fill:#94401d}.st15{fill:#c74d1f}.st17{fill:#fddd04}.st18{fill:#391913}</style><g id="g18" transform="matrix(1.33333 0 0 -1.33333 198.628 515.837)"><g id="g2248" transform="translate(425.097 -1123.349)scale(4.096)"><circle id="path2188" cx="-93.3" cy="321.8" r="45" style="fill-rule:evenodd;clip-rule:evenodd;fill:#ffe6d5"/><path id="path568" d="m-124.1 313.6 8.1 9.5 60.7.2-7.9-9.7z" style="fill:#83331b"/><path id="path570" d="M-124.1 313.6v-25.5c4.6-.2 8.1-2 8.1-4.1h47.2c-.4.5-.6 1.1-.6 1.7 0 2.2 2.7 4 6.2 4.2v23.7z" style="fill:#f8a37b"/><path id="path572" d="M-89.2 309.3c1 .5 2.5 2.1 1.6 3.7-.2.3-.3.5-.5.6h4.1c-.5-1.2-2.4-2.6-2.4-2.6s-.2-.3-1-1c-.6-.3-1.3-.6-1.8-.7m-12.1.1c-.5.2-1.2.6-1.7 1.2-.9.9-1 2.1-1 2.1l-.6 1h2.4c-.2-.1-.3-.3-.5-.6-.9-1.6.5-3.1 1.4-3.7m11.2.4c-.5.1-1.5.2-2.5.5-1.5.5-2.3 1.6-2.3 1.6s-1.6-1-3.8-1.4c-.7-.1-1.2-.2-1.5-.2 0 .7-.2 1.5-.2 1.5s-.4 1.3-1 1.7h12.6c-.6-.4-1-1.7-1-1.7s-.3-1.1-.3-2" style="fill:#da845d"/><path id="path574" d="M-100.5 311.9s.5-2.4 0-2.7-3.5 1.8-2.2 3.9c1.2 2 2.2-1.2 2.2-1.2" class="st4"/><path id="path576" d="M-89.9 311.9s-.5-2.4 0-2.7 3.5 1.8 2.2 3.9c-1.2 2-2.2-1.2-2.2-1.2" class="st4"/><path id="path578" d="M-107.7 332.1c.6-2.7-1.2-5.3-3.8-5.8-2.7-.6-5.3 1.2-5.8 3.8-.6 2.7 1.2 5.3 3.8 5.8 2.6.6 5.2-1.1 5.8-3.8" class="st5"/><path id="path580" d="M-109.6 335.1c-1.1.8-2.5 1.1-3.9.8-2.7-.6-4.4-3.2-3.8-5.8.1-.6.3-1.1.6-1.6 2.1.7 5.4 2.5 7.1 6.6" class="st6"/><path id="path582" d="M-109.9 331.6c.3-1.5-.6-2.9-2.1-3.3-1.5-.3-2.9.6-3.3 2.1-.3 1.5.6 2.9 2.1 3.3 1.6.4 3-.6 3.3-2.1" class="st7"/><path id="path584" d="M-76.1 333c-1.1 0-2.2.7-2.6 1.9-.5 1.4.3 3 1.7 3.4.8.3 4.6 1.8 3.5 5.4-.8 2.6-2.4 3-7 3.5-.9.1-1.7.2-2.6.3-3.3.5-5.7 1.8-7.2 4-2.2 3.2-1.3 6.9-1.2 7.3.4 1.5 1.9 2.3 3.3 2 1.5-.4 2.3-1.9 2-3.3 0 0-.4-1.7.5-2.9.6-.9 1.7-1.4 3.4-1.6l2.4-.3c4.3-.5 9.7-1 11.7-7.2 2.1-6.6-3-10.9-7-12.2-.3-.3-.6-.3-.9-.3" style="fill:#e2591e"/><path id="path588" d="m-85.8 354.5-.1.1c-1.8-1.1-4.1-1.4-5.3-1.4.2-.6.5-1.1.9-1.7.5-.7 1.1-1.3 1.8-1.9 2.4.4 4.3 2.2 5.4 3.4q-1.95.45-2.7 1.5" class="st6"/><path id="path590" d="M-80 347.1c2-.2 3.3-.4 4.3-.8.7 1.1 1.6 3 2 5.1-1.4.6-3 .9-4.5 1.1.1-1.5 0-3.8-1.8-5.4" class="st6"/><path id="path592" d="M-68 340.3c.3 1.2.3 2.6 0 4.1-.5-.4-1.2-.8-2.1-1.1-1.5-.4-2.5-.4-3.2-.3.3-1.5-.3-2.6-1.1-3.3 2.4-.9 4.8-.2 6.4.6" class="st6"/><path id="path594" d="M-73.3 341.8v1.2c0 .2-.1.5-.2.7.1-.2.1-.3.1-.5.2-.5.2-1 .1-1.4m-.1 1.9c-.4 1.3-1.1 2.1-2.2 2.6 1.1-.5 1.7-1.3 2.2-2.6m-6.6 3.4c-.2 0-.4 0-.5.1-.9.1-1.7.2-2.6.3h-.1.1c.9-.1 1.8-.2 2.6-.3.2-.1.4-.1.5-.1m-3.3.4" style="fill:#83bad2"/><path id="path596" d="M-68.4 339.1c-.3.2-.6.4-.9.7.5.2.9.4 1.3.6-.1-.5-.2-.9-.4-1.3m-4 4c-.4 0-.7 0-.9.1 0 .2-.1.3-.1.5-.4 1.3-1.1 2.1-2.2 2.6.2.4.5.9.8 1.5 1.4-.6 2.3-1.4 3-2.8q.45-.9.3-1.8c-.3-.1-.6-.1-.9-.1m-7.6 4c-.2 0-.4 0-.5.1-.9.1-1.7.2-2.6.3h-.1c-2.4.4-4.4 1.2-5.8 2.6l.5-.5c.3 0 .6.1.8.2 1.4-.4 3.1-.8 5.2-.9 1.4-.1 2.6-.2 3.7-.3-.3-.5-.6-1-1.2-1.5" style="fill:#ba4a1f"/><path id="path598" d="M-88.6 349.6c-.2.1-.4.3-.5.5-.2.1-.3.3-.4.4.5-.2 1.1-.5 1.8-.7-.3-.1-.6-.1-.9-.2" class="st11"/><path id="path600" d="M-75.6 346.3c-1 .4-2.4.6-4.3.8q.75.75 1.2 1.5c1.6-.2 2.9-.4 4-.8q-.6-.9-.9-1.5" class="st11"/><path id="path602" d="M-69.3 339.8c-1.2.8-2.5 1.5-4 2 .1.4.1.9 0 1.4.2 0 .5-.1.9-.1.3 0 .6 0 .9.1 0-.3-.1-.6-.1-.8 1.3-.6 2.5-1.2 3.6-2-.4-.3-.9-.5-1.3-.6" class="st11"/><path id="path604" d="M-69.1 344.9s-2.2 3.1-5 4.6c.1.4.2.7.3 1.1.5-.2.9-.5 1.2-.8 2.5-1.9 3.5-4.9 3.5-4.9m-9.1 6.3c-1.6.6-2.8.9-2.8.9s1.2 0 2.8-.3z" style="fill:#e66733"/><path id="path606" d="M-74.1 349.6c-.2.1-.5.2-.7.4-1.2.5-2.3.9-3.3 1.3v.6c1.4-.2 3-.6 4.3-1.2-.1-.4-.2-.8-.3-1.1" class="st13"/><path id="path608" d="M-98.9 336.2s7.2 8.5 21.9 6.5c14.7-2.1 20.1-21.2 20.1-21.2l-6.3-7.9h-35.7z" style="fill:#ef5d22"/><path id="path610" d="M-96.6 338.3c1.6.4 4 .8 7.9.5 9.3-.6 21.3-15.5 21.3-15.5s-5.3 16.9-22.3 18.5c-3.1-1-5.4-2.4-6.9-3.5" class="st6"/><path id="path612" d="M-67.6 316h-2.1c-.6 1.6-3.5 9.2-8.1 13.2-3.8 3.3-9.3 7.1-16.2 7.4h1c5 0 9.3-1.8 12.7-4.1v.2c.1.7.4 1.3.8 1.9 2.8-2 5.4-4.4 7.4-6.5-.5-.5-1.1-.8-1.7-1.1 3.6-4 5.8-9.6 6.2-11m-3.1 13.9c-1.4 2.2-3.4 4.6-5.9 6.6.1 0 .1 0 .2.1h.1c.1 0 .3 0 .4.1h1.1c.2 0 .3 0 .5-.1 2.7-.6 4.4-3.2 3.8-5.8 0-.4-.1-.6-.2-.9" class="st15"/><path id="path614" d="M-71.9 328.2c-2 2.1-4.6 4.5-7.4 6.5.3.4.7.8 1.1 1.1.1.1.3.2.4.3s.3.2.4.2c.1.1.3.1.4.2h.1c.1 0 .1 0 .2.1 2.6-2.1 4.5-4.5 5.9-6.6-.1-.3-.2-.5-.4-.7-.1-.5-.4-.8-.7-1.1" class="st11"/><path id="path616" d="M-82.2 332.8c-.6-2.7 1.2-5.3 3.8-5.8 2.7-.6 5.3 1.2 5.8 3.8.6 2.7-1.2 5.3-3.8 5.8s-5.3-1.2-5.8-3.8" class="st5"/><path id="path618" d="M-80.3 335.7c1.1.8 2.5 1.1 3.9.8 2.7-.6 4.4-3.2 3.8-5.8-.1-.6-.3-1.1-.6-1.6-2.2.8-5.5 2.5-7.1 6.6" class="st6"/><path id="path620" d="M-80.1 332.3c-.3-1.5.6-2.9 2.1-3.3 1.5-.3 2.9.6 3.3 2.1.3 1.5-.6 2.9-2.1 3.3-1.5.3-3-.6-3.3-2.1" class="st7"/><path id="path622" d="m-117.9 313.6-2.4 2.5s7.7 15.7 18.4 19.4c10.6 3.6 19-1.8 24.2-6.3s8.2-13.5 8.2-13.5l-1.9-2.1z" style="fill:#f46a2f"/><path id="path624" d="M-105.6 329.1s8.7 6.9 10.4 6.9 10-6 10-6l-1.4-1.7s-7.3 5.9-8.7 5.9-8.2-5.9-8.2-5.9z" class="st6"/><path id="path626" d="M-101.3 326.5s5 4.2 6.4 4.2 6.2-3.7 6.2-3.7l-1.3-2.5s-3.8 4.1-4.9 4.1-5.4-3.8-5.4-3.8z" class="st6"/><path id="path628" d="m-120.3 316.1 6.7 2.3s-2.2 7 4.1 10.4 9.1-.1 9.9-2.1c.9-2 .9-7.3.9-7.3h7.5s-.1 7.9 3.1 10.1 8 2.5 9.9-1.6c1.9-4.2 0-7.8 0-7.8l8.6-4.3-1.9-2.1h-46.4z" class="st7"/><path id="path630" d="M-100.5 323.3c0-1.6-1.3-3-3-3-1.6 0-3 1.3-3 3 0 1.6 1.3 3 3 3s3-1.3 3-3" class="st17"/><path id="path632" d="M-101.3 323.3c0-1.2-1-2.1-2.1-2.1-1.2 0-2.1 1-2.1 2.1s1 2.1 2.1 2.1 2.1-.9 2.1-2.1" class="st18"/><path id="path634" d="M-103.9 324.6c0-.5-.4-.9-.9-.9s-.9.4-.9.9.4.9.9.9.9-.4.9-.9" class="st7"/><path id="path636" d="M-83.6 323.3c0-1.6-1.3-3-3-3-1.6 0-3 1.3-3 3 0 1.6 1.3 3 3 3s3-1.3 3-3" class="st17"/><path id="path638" d="M-84.4 323.3c0-1.2-1-2.1-2.1-2.1-1.2 0-2.1 1-2.1 2.1s.9 2.1 2.1 2.1c1.1 0 2.1-.9 2.1-2.1" class="st18"/><path id="path640" d="M-87 324.6c0-.5-.4-.9-.9-.9s-.9.4-.9.9.4.9.9.9.9-.4.9-.9" class="st7"/><path id="path642" d="M-63.2 313.6h-6.2l1.9 2.1s0 .1-.1.3h4.4l5.8 7.1c.4-1 .5-1.6.5-1.6z" class="st15"/><path id="path644" d="M-69.4 313.6h-2.1l1.9 2.1s0 .1-.1.3h2.1c.1-.2.1-.3.1-.3z" style="fill:#a33f1e"/><path id="path646" d="m-69.5 315.7-.6.3h.5c0-.2.1-.3.1-.3" style="fill:#de581d"/><path id="path648" d="M-71.5 313.6h-46.4l-2.4 2.4h50.1l.6-.3z" style="fill:#d5d0cd"/><path id="path650" d="M-99.6 320.1s-2.8-.7-3.9-3.4c-1-2.7.4-4.7 2.7-5.2 2.4-.5 5.8 1.2 5.8 1.2s2.8-2.7 6.2-2 4.5 4.5 2.8 6.9c-1.6 2.3-5.6 2.6-5.6 2.6s-6.1-1.8-8-.1" class="st7"/><path id="path652" d="M-94.9 312.7s.1-.1.4-.3v4.3c0 .2-.2.3-.3.3-.2 0-.3-.2-.3-.3v-4.1c.1 0 .2.1.2.1" style="fill:#a6b9b5"/><path id="path654" d="M-91.2 317.1s2.2 2.6.8 3.7-2.8-.8-4.6-.6-3.7 1.5-4.4.3c-.8-1.3 1.2-2.8 1.2-2.8s.5 1.3 1.6.7.2-2 .2-2 .8-.6 1.5-.7 1.8.8 1.8.8-.6 1.5.6 2.1c1.1.6 1.3-1.5 1.3-1.5" class="st6"/><path id="path656" d="M-113 325.1s-1.7-2.2-1.5-5.4c.1-3.2 4.8-6.1 4.8-6.1l-1.8 2.8c-.5.7-.3 1.6.4 2.2l2.8 2.3s-3.8-1.2-4.5-.3-.2 4.5-.2 4.5" class="st6"/><path id="path658" d="M-77.8 327s-.3-2.8-1-4.2-3.1-.8-3.1-.8 2.7-1.4 2.7-2.2c0-.9-1.8-3.6-1.8-3.6s5.9 3.7 3.2 10.8" class="st6"/><path id="path660" d="M-113.1 313.6s-1.2.9-1.9 2.1c-.8 1.2-1 2-1 2s-.1-1.6.4-2.7.8-1.4.8-1.4z" class="st6"/><path id="path662" d="M-76.9 313.6s1.1.9 2.1 2.6 1.3 3.9 1.3 3.9.5-3.2.2-4.5c-.3-1.4-.8-1.9-.8-1.9h-2.8" class="st6"/><path id="path664" d="M-72.5 341.4c-1.4.6-2.9 1-4.5 1.3-1.4.2-2.6.3-3.9.3 2.4-.6 7.4-2.1 11.4-5.8 5.5-5 7.6-9.6 7.6-9.6s-3.3 9.1-10.6 13.8" class="st6"/><path id="path666" d="M-69.1 335.3s3.6-2.8 5.7-8.3 2.1-6.9 2.1-6.9l-9 11.3 6-5.5c-.1 0-.3 3.2-4.8 9.4" class="st6"/><path id="path668" d="m-55.3 323.3-7.9-9.7v-22.5c.6.8 1.3 1.2 2 1.2s1.4-.4 1.9-1.1l3.9 7.1v25z" style="fill:#f6854f"/><path id="path670" d="M-71.7 304.6h3.5v3h1.6l-3.4 3.8-3.4-3.8h1.6v-3" class="st6"/><path id="path672" d="M-70 303.7h-3.4v-1.2h6.7v1.2z" class="st6"/><path id="path674" d="M-72.2 339.4c-1.7.6-4 1.2-6.5 1.3h-1c-1.4 0-2.8-.1-4.1-.1l-2.1.6c1.6.4 3.6.7 5.8.7.6 0 1.2 0 1.8-.1.8-.1 1.6-.2 2.3-.3 1.1-.6 2.5-1.3 3.8-2.1" style="fill:#f06c34"/><path id="path676" d="M-90 339.9s1.6.7 4 1.3l2.1-.6c-3.3-.3-6.1-.7-6.1-.7" class="st13"/><path id="path678" d="M-69.5 338.2s-1 .6-2.7 1.2c-1.3.9-2.6 1.5-3.9 2.1 4.6-1 6.6-3.3 6.6-3.3" class="st13"/><path id="path1131" d="M-93.3 368.7c-25.9 0-46.9-21-46.9-46.9s21-46.9 46.9-46.9 46.9 21 46.9 46.9-21 46.9-46.9 46.9m0-9.4c20.7 0 37.5-16.8 37.5-37.5s-16.8-37.5-37.5-37.5-37.5 16.8-37.5 37.5 16.8 37.5 37.5 37.5" style="fill-rule:evenodd;clip-rule:evenodd;fill:#e66001"/><path id="path586" d="M-85.8 354.5c-.8 1.2-.5 2.9-.5 2.9.4 1.5-.5 2.9-2 3.3s-2.9-.5-3.3-2c-.1-.4-.9-3.8 1-6.9 1.5.3 3.6.9 5.1 2.3 0 .2-.2.3-.3.4" class="st7"/></g></g></svg>