<svg xmlns="http://www.w3.org/2000/svg" xml:space="preserve" id="svg5186" x="0" y="0" style="enable-background:new 0 0 512 512" version="1.1" viewBox="0 0 512 512"><style>.st18{fill:none;stroke:#fff;stroke-linecap:round}</style><filter id="filter9771" width="1.06" height="1.28" x="-.03" y="-.14"><feGaussianBlur id="feGaussianBlur9773" stdDeviation=".52"/></filter><g id="layer1"><g style="opacity:.2824;filter:url(#filter9771);enable-background:new"><path id="rect9761" d="M40.5 409h431.1c14.7 0 26.6 11.9 26.6 26.6v49.9c0 14.7-11.9 26.6-26.6 26.6H40.5c-14.7 0-26.6-11.9-26.6-26.6v-49.9c0-14.7 11.9-26.6 26.6-26.6" style="fill:#2e3436"/></g><linearGradient id="path5232_00000058576920555416522510000016935891415215423419_" x1="257.658" x2="257.658" y1="321.649" y2="64.535" gradientTransform="matrix(1 0 0 -1 0 514)" gradientUnits="userSpaceOnUse"><stop offset="0" style="stop-color:#787b76"/><stop offset=".871" style="stop-color:#babcb9"/><stop offset="1" style="stop-color:#787b76"/></linearGradient><path id="path5232" d="M94.8 150.1c-13.6-.5-27.3 11.3-28.5 25.6C56 260 40.8 344.3 33 428.5v35.4c.4 18.3 12.4 30.5 25.6 32.9h400.1c11.3-.3 23.9-8.1 23.5-23.1v-45.5l-36-245.2c-2.9-15-15.8-31-33.6-32.9z" style="fill-rule:evenodd;clip-rule:evenodd;fill:url(#path5232_00000058576920555416522510000016935891415215423419_);stroke:#555753;stroke-width:1"/><linearGradient id="path5230_00000128454780994748310510000007092261228009905591_" x1="260.014" x2="265.792" y1="166.111" y2="271.557" gradientTransform="matrix(1 0 0 -1 0 514)" gradientUnits="userSpaceOnUse"><stop offset="0" style="stop-color:#f0f2ef"/><stop offset="1" style="stop-color:#cdd1c8"/></linearGradient><path id="path5230" d="M101.7 416.2c-13.1-1.4-22.3-10-22-25.7l22-184.8c3.4-12.3 11.4-22.2 24-22.2h253.4c12.6-.4 25.1 8.3 28.4 18.7l27.9 186.4c.7 17-6.3 26.8-18.1 26.4z" style="fill-rule:evenodd;clip-rule:evenodd;fill:url(#path5230_00000128454780994748310510000007092261228009905591_);stroke:#555753;stroke-width:1"/><linearGradient id="path5197_00000006689332825260170750000007963860549997984920_" x1="255.848" x2="255.848" y1="201.852" y2="135.51" gradientTransform="matrix(1 0 0 -1 0 514)" gradientUnits="userSpaceOnUse"><stop offset="0" style="stop-color:#555753"/><stop offset="1" style="stop-color:#2e3436"/></linearGradient><linearGradient id="path5197_00000052802538007258154920000008719694013745319332_" x1="255.799" x2="253.526" y1="186.293" y2="277.071" gradientTransform="matrix(1 0 0 -1 0 514)" gradientUnits="userSpaceOnUse"><stop offset="0" style="stop-color:#888a85"/><stop offset="1" style="stop-color:#2e3436"/></linearGradient><path id="path5197" d="m215.8 194.5-23.8 139h-34.3l92.8 59.6 103.6-59.6h-34.3l-21.7-139z" style="fill-rule:evenodd;clip-rule:evenodd;fill:url(#path5197_00000006689332825260170750000007963860549997984920_);stroke:url(#path5197_00000052802538007258154920000008719694013745319332_)"/><linearGradient id="rect5224_00000167378108370139695280000003496694304969247617_" x1="257.048" x2="257.048" y1="490.657" y2="451.65" gradientTransform="matrix(1 0 0 -1 0 514)" gradientUnits="userSpaceOnUse"><stop offset="0" style="stop-color:#c00"/><stop offset=".365" style="stop-color:#ef0000"/><stop offset="1" style="stop-color:#a00"/></linearGradient><path id="rect5224" d="M135.2 10.5h243.6c32 0 58 10.3 58 22.9v24.2c0 12.7-26 22.9-58 22.9H135.2c-32 0-58-10.3-58-22.9V33.4c.1-12.6 26-22.9 58-22.9" style="fill:url(#rect5224_00000167378108370139695280000003496694304969247617_);stroke:#930000;stroke-width:1;stroke-linecap:round;stroke-linejoin:round"/><linearGradient id="rect5896_00000069389731644706871400000005848080282515370678_" x1="257.039" x2="257.039" y1="491.798" y2="445.273" gradientTransform="matrix(1 0 0 -1 0 514)" gradientUnits="userSpaceOnUse"><stop offset="0" style="stop-color:#fff"/><stop offset="1" style="stop-color:#fff;stop-opacity:0"/></linearGradient><path id="rect5896" d="M110.2 22.7h293.7c11.7 0 21.2 6.6 21.2 14.8v16c0 8.2-9.5 14.8-21.2 14.8H110.2C98.5 68.2 89 61.6 89 53.5v-16c0-8.2 9.5-14.8 21.2-14.8" style="opacity:.5833;fill:none;stroke:url(#rect5896_00000069389731644706871400000005848080282515370678_);stroke-width:1;stroke-linecap:round;stroke-linejoin:round;enable-background:new"/><linearGradient id="path5881_00000139273475127190173840000003664081353357937311_" x1="253.497" x2="244.732" y1="141.169" y2="352.838" gradientTransform="matrix(1 0 0 -1 0 514)" gradientUnits="userSpaceOnUse"><stop offset="0" style="stop-color:#f9f9f9"/><stop offset="1" style="stop-color:#eeeeec;stop-opacity:.6204"/></linearGradient><path id="path5881" d="M101.6 161.4c-12.9-.5-25.8 10.6-27 24l-32.2 232c.1 1.4.4 3 .7 4.4v33.1c.4 17.1 11.7 28.2 24.3 30.4H447c10.7-.3 22.3-7.3 21.9-21.3v-42.5c.1-.3.3-.7.3-1l-.3-2.4v-2.4h-.3L435 191.8c-2.8-14.1-15-28.7-31.8-30.4z" style="opacity:.2454;fill:none;stroke:url(#path5881_00000139273475127190173840000003664081353357937311_);stroke-width:1;enable-background:new"/><linearGradient id="path5926_00000080198606214203198090000004507462762851665313_" x1="256.964" x2="256.964" y1="315.943" y2="303.572" gradientTransform="matrix(1 0 0 -1 0 514)" gradientUnits="userSpaceOnUse"><stop offset="0" style="stop-color:#000"/><stop offset="1" style="stop-color:#000;stop-opacity:0"/></linearGradient><path id="path5926" d="m97.2 304.5 21.2-91.9 277.7.7 20.6 103.8-13.6-104.9c-2.6-11.6-8.7-22.8-19.9-22.5l-253.3-.5c-16.5-.5-19.8 10.2-23.5 23z" style="opacity:.2083;fill-rule:evenodd;clip-rule:evenodd;fill:url(#path5926_00000080198606214203198090000004507462762851665313_);enable-background:new"/><linearGradient id="rect5226_00000161598652057951830900000004632129501683187641_" x1="256.939" x2="256.939" y1="507.619" y2="330.712" gradientTransform="matrix(1 0 0 -1 0 514)" gradientUnits="userSpaceOnUse"><stop offset="0" style="stop-color:#babdb6"/><stop offset=".133" style="stop-color:#eeeeec"/><stop offset="1" style="stop-color:#babdb6"/></linearGradient><path id="rect5226" d="M228.4 0h57.1c6.9 0 12.4 5.6 12.4 12.4v275.2c0 6.9-5.6 12.4-12.4 12.4h-57.1c-6.9 0-12.4-5.6-12.4-12.4V12.4C215.9 5.6 221.5 0 228.4 0" style="fill:url(#rect5226_00000161598652057951830900000004632129501683187641_);stroke:#888a85;stroke-linecap:round;stroke-linejoin:round"/><linearGradient id="rect5244_00000025407472243848991930000000544946367935788717_" x1="257.328" x2="256.817" y1="208.343" y2="294.14" gradientTransform="matrix(1 0 0 -1 0 514)" gradientUnits="userSpaceOnUse"><stop offset="0" style="stop-color:#2e3436"/><stop offset="1" style="stop-color:#2e3436;stop-opacity:0"/></linearGradient><path id="rect5244" d="M222.5 212.7h69.1c6.9 0 12.4 5.6 12.4 12.4v68.1c0 6.9-5.6 12.4-12.4 12.4h-69.1c-6.9 0-12.4-5.6-12.4-12.4v-68.1c0-6.8 5.5-12.4 12.4-12.4" style="fill:url(#rect5244_00000025407472243848991930000000544946367935788717_)"/><path id="path5879" d="M111.2 437.8H436" style="opacity:.4352;fill:none;stroke:#fff;stroke-linecap:round;enable-background:new"/><path id="rect5892" d="M239.3 11.9H274c6.9 0 12.4 5.6 12.4 12.4V276c0 6.9-5.6 12.4-12.4 12.4h-34.7c-6.9 0-12.4-5.6-12.4-12.4V24.3c0-6.9 5.5-12.4 12.4-12.4" style="opacity:.2269;fill:none;stroke:#fff;stroke-linecap:round;stroke-linejoin:round;enable-background:new"/><g id="g5972" style="opacity:.6204"><path id="path5831" d="M215.4 310.8H297" style="fill:none;stroke:#888a85;stroke-linecap:round"/><path id="path5833" d="M209.9 333.9h92.6" style="opacity:.6806;fill:none;stroke:#888a85;stroke-linecap:round;enable-background:new"/><path id="path5958" d="M213.5 322.4h86.1" style="fill:none;stroke:#5d5d5c;stroke-linecap:round"/><path id="path5960" d="M208.8 345.3h95.6" style="opacity:.6806;fill:none;stroke:#5d5d5c;stroke-width:1;stroke-linecap:round;enable-background:new"/></g><path id="path9791" d="M145.4 322.5h36.3" class="st18"/><path id="path9803" d="M331 321.8h36.3" class="st18"/><path id="path5119" d="M95 437.9c0 3.3-2.6 6-5.8 6s-5.8-2.7-5.8-6 2.6-6 5.8-6 5.8 2.7 5.8 6" style="opacity:.335;fill:#fff;enable-background:new"/></g></svg>